<svg width="50" height="50" viewBox="0 0 50 50" xmlns="http://www.w3.org/2000/svg"><title>facebook</title><path d="M30.59 49.98h16.632a2.759 2.759 0 0 0 2.758-2.758V2.758A2.758 2.758 0 0 0 47.222 0H2.758A2.758 2.758 0 0 0 0 2.758v44.464a2.758 2.758 0 0 0 2.758 2.758H34.485V30.625h6.497l.973-7.543h-7.47v-4.816c0-2.184.607-3.672 3.738-3.672l3.995-.002V7.846c-.691-.092-3.062-.297-5.82-.297-5.76 0-9.702 3.515-9.702 9.97v5.563h-6.514v7.543h6.514V49.98h3.895z" fill="#485A96" fill-rule="evenodd"/></svg>