<svg width="148" height="60" viewBox="0 0 148 60" xmlns="http://www.w3.org/2000/svg"><title>imdb</title><path d="M133.35 24.834c0-2.463-.16-4.067-.477-4.825-.316-.754-.928-1.133-1.855-1.133-.902 0-1.487.332-1.753.984-.269.66-.401 2.319-.401 4.973v20.535c0 2.56.152 4.197.456 4.914.3.723.906 1.074 1.803 1.074.921 0 1.522-.365 1.802-1.109.281-.745.422-2.525.422-5.351l.002-20.062zM128.862.698v13.877c1.206-1.406 2.546-2.456 4.021-3.146 1.486-.688 3.096-1.035 4.829-1.035 1.993 0 3.724.313 5.196.933 1.468.629 2.588 1.503 3.358 2.627.768 1.128 1.234 2.234 1.392 3.311.153 1.078.234 3.377.234 6.901v21.506c0 3.503-.234 6.11-.71 7.824-.463 1.717-1.573 3.205-3.305 4.462-1.736 1.257-3.795 1.885-6.18 1.885-1.713 0-3.31-.375-4.794-1.125-1.487-.753-2.846-1.878-4.068-3.372l-.94 3.65h-13.573V.697h14.54zm-54.787 0h11.313c7.303 0 12.246.336 14.819 1.007 2.576.675 4.536 1.78 5.875 3.31 1.339 1.542 2.178 3.248 2.514 5.138.34 1.885.509 5.582.509 11.102v20.42c0 5.235-.251 8.73-.738 10.494-.492 1.765-1.347 3.145-2.573 4.146-1.222.994-2.73 1.69-4.525 2.091-1.796.394-4.5.59-8.12.59H74.078V.697h-.001zm15.146 9.938v38.422c2.158 0 3.49-.438 3.984-1.32.492-.88.746-3.265.746-7.156V17.886c0-2.647-.085-4.341-.254-5.083-.168-.75-.543-1.296-1.137-1.643-.587-.352-1.7-.524-3.34-.524zM68.036.698v58.298H54.82l-.058-39.362-5.27 39.362h-9.454l-5.512-38.514-.062 38.514H21.253V.697h19.601c.519 3.541 1.117 7.683 1.815 12.422l2.155 14.803L48.31.698h19.725zM.02.697h15.15v58.298H.021V.697z" fill="#F5DE50" fill-rule="evenodd"/></svg>