<svg width="50" height="50" viewBox="0 0 50 50" xmlns="http://www.w3.org/2000/svg"><title>instagram</title><path d="M43.92 21.002h-4.323c.315 1.222.501 2.5.501 3.82 0 8.438-6.838 15.276-15.275 15.276-8.436 0-15.275-6.838-15.275-15.276 0-1.32.187-2.598.502-3.82H5.728v21.005a1.91 1.91 0 0 0 1.911 1.908h34.369a1.91 1.91 0 0 0 1.911-1.908V21.002zm0-13.366a1.91 1.91 0 0 0-1.912-1.909H36.28a1.91 1.91 0 0 0-1.91 1.91v5.729a1.91 1.91 0 0 0 1.91 1.909h5.727a1.91 1.91 0 0 0 1.911-1.91V7.637zm-19.097 7.639a9.547 9.547 0 0 0-9.548 9.547c0 5.272 4.275 9.548 9.548 9.548s9.548-4.276 9.548-9.548c0-5.273-4.275-9.547-9.548-9.547zm19.096 34.37H5.727A5.729 5.729 0 0 1 0 43.916V5.727A5.727 5.727 0 0 1 5.727 0H43.92a5.727 5.727 0 0 1 5.727 5.727v38.188a5.729 5.729 0 0 1-5.727 5.73z" fill="#231F20" fill-rule="evenodd"/></svg>