<svg width="63" height="51" viewBox="0 0 63 51" xmlns="http://www.w3.org/2000/svg"><title>twitter</title><path d="M41.742 1.011V1H44.6l1.044.209c.697.136 1.33.313 1.897.533.568.22 1.118.477 1.65.77.531.293 1.013.592 1.446.896.429.3.814.62 1.154.957.338.34.864.429 1.578.264a21.106 21.106 0 0 0 2.31-.687c.824-.294 1.64-.624 2.446-.99.807-.367 1.298-.6 1.474-.698l.275-.165.01-.017.056-.027.055-.028.055-.027.055-.028.01-.016.017-.011.017-.011.01-.017.056-.016.055-.011-.011.082-.017.083-.027.082-.028.083-.027.055-.028.055-.027.082a1.912 1.912 0 0 0-.055.22c-.019.092-.193.458-.523 1.1-.33.641-.742 1.292-1.237 1.951-.495.66-.938 1.159-1.33 1.496-.396.34-.658.58-.787.715a2.36 2.36 0 0 1-.467.385l-.275.181-.055.028-.055.027-.01.017-.017.01-.017.012-.01.016-.056.028-.055.027-.01.016-.017.011-.017.011-.01.017-.012.016-.016.011-.017.011-.01.017h.274l1.54-.33a27.55 27.55 0 0 0 2.941-.797l1.485-.495.165-.055.082-.027.055-.028.055-.027.055-.028.055-.027.11-.017.11-.01v.109l-.027.011-.028.017-.01.016-.017.011-.017.011-.011.017-.01.016-.017.011-.017.011-.01.016-.012.017-.016.011-.028.055-.027.055-.017.01c-.007.012-.24.323-.698.936-.458.615-.706.927-.742.934-.037.011-.088.066-.154.165-.063.103-.451.512-1.166 1.226a27.672 27.672 0 0 1-2.1 1.908c-.69.561-1.038 1.25-1.045 2.068a48.268 48.268 0 0 1-.126 2.76 34.944 34.944 0 0 1-.413 3.326c-.201 1.191-.513 2.538-.934 4.041a36.74 36.74 0 0 1-1.54 4.399 34.27 34.27 0 0 1-1.897 3.849 41.774 41.774 0 0 1-1.814 2.886c-.55.788-1.109 1.53-1.677 2.227a32.813 32.813 0 0 1-2.155 2.353c-.873.869-1.35 1.345-1.43 1.43-.084.08-.443.38-1.078.901a37.817 37.817 0 0 1-2.034 1.573 23.53 23.53 0 0 1-1.99 1.303c-.605.348-1.335.746-2.189 1.193-.85.45-1.77.869-2.76 1.254a41.74 41.74 0 0 1-3.134 1.072c-1.1.33-2.162.586-3.189.77-1.026.183-2.19.339-3.491.467l-1.952.192V50.538H18.43V50.512l-.467-.027a25.064 25.064 0 0 1-.77-.055c-.201-.019-.962-.12-2.282-.303s-2.355-.366-3.106-.55c-.751-.183-1.87-.53-3.354-1.044-1.484-.513-2.755-1.032-3.81-1.556-1.052-.52-1.712-.85-1.98-.99-.263-.135-.56-.304-.89-.506l-.495-.302-.011-.016-.017-.011-.016-.011-.011-.017-.055-.027-.055-.028-.011-.016-.017-.011-.016-.011-.011-.017-.011-.016-.017-.011H1v-.11l.055.01.055.017.247.028c.165.018.614.045 1.347.082a24.808 24.808 0 0 0 4.866-.247c.862-.129 1.879-.349 3.052-.66a22.546 22.546 0 0 0 3.233-1.11 45.058 45.058 0 0 0 2.09-.968c.41-.21 1.036-.598 1.88-1.166l1.264-.852.011-.017.017-.01.016-.012.011-.016.011-.017.017-.01.016-.012.011-.016.055-.017.055-.01.011-.056.016-.055.017-.01.011-.017-.44-.028a206.18 206.18 0 0 1-.852-.055c-.275-.018-.706-.1-1.292-.247a12.401 12.401 0 0 1-1.897-.66 14.624 14.624 0 0 1-1.98-1.045c-.64-.403-1.105-.738-1.39-1.006a24.124 24.124 0 0 1-1.1-1.121 11.124 11.124 0 0 1-1.166-1.501 13.486 13.486 0 0 1-.945-1.776l-.457-1-.027-.083-.028-.083-.016-.055-.011-.055.082.011.083.017.605.082c.403.055 1.035.073 1.896.055.862-.018 1.457-.055 1.787-.11.33-.055.532-.092.605-.11l.11-.027.138-.028.137-.027.011-.017.016-.01.017-.012.011-.016-.11-.028-.11-.027-.11-.028-.11-.027-.11-.028a10.103 10.103 0 0 1-.385-.11c-.183-.055-.678-.256-1.484-.605-.807-.348-1.448-.687-1.925-1.017a13.29 13.29 0 0 1-1.363-1.083 15.56 15.56 0 0 1-1.413-1.528 10.998 10.998 0 0 1-1.375-2.172 13.208 13.208 0 0 1-.907-2.364 12.764 12.764 0 0 1-.396-2.282l-.099-1.155.055.011.055.017.055.027.055.028.055.027.055.028.852.385c.569.256 1.274.476 2.117.66.843.183 1.347.284 1.512.302l.248.027h.494l-.01-.016-.017-.011-.017-.011-.01-.017-.012-.016-.016-.011-.017-.011-.01-.017-.056-.027-.055-.028-.01-.016-.017-.011-.017-.011-.01-.017-.055-.027-.055-.028-.011-.016a68.545 68.545 0 0 1-.473-.352 7.21 7.21 0 0 1-.946-.896c-.33-.367-.66-.752-.99-1.155a8.916 8.916 0 0 1-.88-1.292 15.663 15.663 0 0 1-.813-1.748 12.411 12.411 0 0 1-.643-2.128c-.147-.715-.23-1.42-.248-2.117-.018-.696 0-1.292.055-1.787.055-.495.165-1.054.33-1.677s.403-1.283.715-1.98l.467-1.044.028-.082.027-.083.017-.01.01-.017.012-.017.016-.01.017.01.01.017.012.016.016.011.017.011.01.017.012.016.016.011.028.055.027.055.017.011.01.017.743.824c.495.55 1.081 1.164 1.76 1.842.677.678 1.053 1.03 1.126 1.056.074.03.165.114.275.253.11.136.477.46 1.1.973.623.513 1.439 1.109 2.447 1.787a39.57 39.57 0 0 0 3.354 2.007 32.725 32.725 0 0 0 3.958 1.787c1.411.531 2.401.88 2.97 1.044.567.165 1.539.376 2.913.633 1.375.256 2.41.421 3.107.495.696.073 1.173.115 1.43.126l.384.011-.01-.082-.017-.083-.11-.687c-.074-.458-.11-1.1-.11-1.925 0-.824.064-1.585.192-2.281.129-.697.321-1.402.577-2.117.257-.715.508-1.289.754-1.721.249-.429.575-.918.978-1.468.404-.55.926-1.118 1.567-1.705a11.563 11.563 0 0 1 2.2-1.567c.824-.458 1.585-.806 2.281-1.044.697-.238 1.283-.394 1.76-.468.476-.073.715-.115.715-.126z" stroke-width=".5" stroke="#5DA8DC" fill="#5DA8DC" fill-rule="evenodd"/></svg>