<?xml version="1.0" encoding="UTF-8"?>
<svg width="50px" height="50px" viewBox="0 0 50 50" version="1.1" xmlns="http://www.w3.org/2000/svg" xmlns:xlink="http://www.w3.org/1999/xlink">
    <!-- Generator: Sketch 42 (36781) - http://www.bohemiancoding.com/sketch -->
    <title>facebook</title>
    <desc>Created with Sketch.</desc>
    <defs></defs>
    <g id="Page-1" stroke="none" stroke-width="1" fill="none" fill-rule="evenodd">
        <g id="Desktop-HD---Ratings" transform="translate(-563.000000, -3448.000000)" fill="#485A96">
            <g id="Group-2" transform="translate(0.000000, -3.000000)">
                <g id="Footer" transform="translate(0.000000, 3087.000000)">
                    <g id="Social-&amp;-Apps" transform="translate(220.000000, 322.000000)">
                        <g id="Social" transform="translate(343.000000, 0.000000)">
                            <g id="facebook" transform="translate(0.000000, 42.000000)">
                                <path d="M30.5905431,49.9801498 L47.2217228,49.9801498 L47.2217228,49.9803371 C48.7449438,49.9803371 49.9799625,48.7451311 49.9799625,47.2219101 L49.9799625,2.75842697 C49.9799625,1.23464419 48.7447566,0 47.2217228,0 L2.75842697,0 C1.23464419,0 0,1.23483146 0,2.75842697 L0,47.2217228 C0,48.7451311 1.23464419,49.9801498 2.75842697,49.9801498 L30.5905431,49.9801498 L34.4853933,49.9801498 L34.4853933,49.9803371 L34.4853933,30.6252809 L40.9820225,30.6252809 L41.9546816,23.0822097 L34.485206,23.0822097 L34.485206,18.2662921 C34.485206,16.082397 35.091573,14.5941948 38.2234082,14.5941948 L42.217603,14.5923221 L42.217603,7.84588015 C41.526779,7.75411985 39.155618,7.54868914 36.3973783,7.54868914 C30.6383895,7.54868914 26.6956929,11.0638577 26.6956929,17.5194757 L26.6956929,23.0822097 L20.182397,23.0822097 L20.182397,30.6252809 L26.6956929,30.6252809 L26.6956929,49.9801498 L30.5905431,49.9801498 Z"></path>
                            </g>
                        </g>
                    </g>
                </g>
            </g>
        </g>
    </g>
</svg>