<?xml version="1.0" encoding="UTF-8"?>
<svg width="148px" height="60px" viewBox="0 0 148 60" version="1.1" xmlns="http://www.w3.org/2000/svg" xmlns:xlink="http://www.w3.org/1999/xlink">
    <!-- Generator: Sketch 42 (36781) - http://www.bohemiancoding.com/sketch -->
    <title>imdb</title>
    <desc>Created with Sketch.</desc>
    <defs></defs>
    <g id="Page-1" stroke="none" stroke-width="1" fill="none" fill-rule="evenodd">
        <g id="Desktop-HD---Ratings" transform="translate(-220.000000, -28.000000)" fill="#F5DE50">
            <g id="Group-2" transform="translate(0.000000, -3.000000)">
                <g id="Top-Bar" transform="translate(0.000000, 3.000000)">
                    <g id="Letters---Light" transform="translate(220.000000, 28.000000)">
                        <path d="M133.34925,24.834 C133.34925,22.371 133.1895,20.76675 132.873,20.0085 C132.5565,19.25475 131.9445,18.876 131.01825,18.876 C130.116,18.876 129.531,19.20825 129.26475,19.86 C128.99625,20.51925 128.8635,22.179 128.8635,24.83325 L128.8635,45.3675 C128.8635,47.928 129.01575,49.5645 129.32025,50.28225 C129.6195,51.0045 130.2255,51.35625 131.1225,51.35625 C132.04425,51.35625 132.645,50.991 132.92475,50.247 C133.206,49.5015 133.347,47.72175 133.347,44.89575 L133.34925,24.834 L133.34925,24.834 L133.34925,24.834 Z M128.8635,0.6975 L128.8635,14.57475 C130.06875,13.16925 131.409,12.11925 132.88425,11.4285 C134.37,10.74075 135.9795,10.39425 137.71275,10.39425 C139.70625,10.39425 141.43725,10.707 142.90875,11.32725 C144.3765,11.95575 145.497,12.83025 146.2665,13.9545 C147.03525,15.0825 147.501,16.188 147.65925,17.265 C147.8115,18.34275 147.89325,20.6415 147.89325,24.1665 L147.89325,45.672 C147.89325,49.1745 147.65925,51.7815 147.18375,53.496 C146.7195,55.21275 145.6095,56.70075 143.87775,57.95775 C142.1415,59.21475 140.08275,59.84325 137.6985,59.84325 C135.98475,59.84325 134.388,59.46825 132.90375,58.71825 C131.41725,57.96525 130.05825,56.84025 128.83575,55.34625 L127.89525,58.9965 L114.3225,58.9965 L114.3225,0.6975 L128.8635,0.6975 Z M74.076,0.6975 L85.389,0.6975 C92.69175,0.6975 97.635,1.0335 100.2075,1.70475 C102.7845,2.37975 104.74425,3.48525 106.083,5.01525 C107.42175,6.55725 108.261,8.26275 108.597,10.15275 C108.93675,12.03825 109.1055,15.735 109.1055,21.255 L109.1055,41.67525 C109.1055,46.91025 108.855,50.40525 108.3675,52.16925 C107.87625,53.934 107.02125,55.314 105.795,56.3145 C104.57325,57.309 103.06575,58.005 101.27025,58.40625 C99.474,58.8 96.77025,58.9965 93.15075,58.9965 L74.07675,58.9965 L74.07675,0.6975 L74.076,0.6975 Z M89.2215,10.6365 L89.2215,49.0575 C91.38,49.0575 92.71125,48.6195 93.20625,47.7375 C93.69825,46.8585 93.95175,44.47275 93.95175,40.58175 L93.95175,17.886 C93.95175,15.23925 93.867,13.545 93.69825,12.80325 C93.5295,12.05325 93.1545,11.5065 92.56125,11.16 C91.974,10.80825 90.861,10.6365 89.2215,10.6365 Z M68.0355,0.6975 L68.0355,58.9965 L54.82125,58.9965 L54.76275,19.63425 L49.4925,58.9965 L40.03875,58.9965 L34.527,20.48175 L34.46475,58.9965 L21.2535,58.9965 L21.2535,0.6975 L40.854,0.6975 C41.373,4.23825 41.97075,8.37975 42.669,13.119 L44.82375,27.92175 L48.30975,0.6975 L68.0355,0.6975 Z M0.021,0.6975 L15.171,0.6975 L15.171,58.9965 L0.021,58.9965 L0.021,0.6975 Z" id="imdb"></path>
                    </g>
                </g>
            </g>
        </g>
    </g>
</svg>