<?xml version="1.0" encoding="UTF-8"?>
<svg width="50px" height="50px" viewBox="0 0 50 50" version="1.1" xmlns="http://www.w3.org/2000/svg" xmlns:xlink="http://www.w3.org/1999/xlink">
    <!-- Generator: Sketch 42 (36781) - http://www.bohemiancoding.com/sketch -->
    <title>instagram</title>
    <desc>Created with Sketch.</desc>
    <defs></defs>
    <g id="Page-1" stroke="none" stroke-width="1" fill="none" fill-rule="evenodd">
        <g id="Desktop-HD---Ratings" transform="translate(-734.000000, -3448.000000)" fill="#231F20">
            <g id="Group-2" transform="translate(0.000000, -3.000000)">
                <g id="Footer" transform="translate(0.000000, 3087.000000)">
                    <g id="Social-&amp;-Apps" transform="translate(220.000000, 322.000000)">
                        <g id="Social" transform="translate(343.000000, 0.000000)">
                            <g id="instagram-glyph" transform="translate(171.000000, 42.000000)">
                                <path d="M43.9192982,21.0017544 L39.5973684,21.0017544 C39.9122807,22.2241228 40.0982456,23.5013158 40.0982456,24.8219298 C40.0982456,33.2596491 33.2596491,40.0982456 24.8232456,40.0982456 C16.3872807,40.0982456 9.54824561,33.2596491 9.54824561,24.8219298 C9.54824561,23.5013158 9.73508772,22.2241228 10.05,21.0017544 L5.72763158,21.0017544 L5.72763158,42.0074561 C5.72763158,43.0605263 6.58289474,43.9153509 7.63903509,43.9153509 L42.0078947,43.9153509 C43.0640351,43.9153509 43.9192982,43.0609649 43.9192982,42.0074561 L43.9192982,21.0017544 L43.9192982,21.0017544 Z M43.9192982,7.63640351 C43.9192982,6.58245614 43.0640351,5.72719298 42.0078947,5.72719298 L36.2807018,5.72719298 C35.2258772,5.72719298 34.3710526,6.58245614 34.3710526,7.63640351 L34.3710526,13.3657895 C34.3710526,14.4197368 35.2254386,15.275 36.2807018,15.275 L42.0078947,15.275 C43.0640351,15.275 43.9192982,14.4197368 43.9192982,13.3657895 L43.9192982,7.63640351 L43.9192982,7.63640351 Z M24.822807,15.275 C19.5495614,15.275 15.2754386,19.5486842 15.2754386,24.8219298 C15.2754386,30.0942982 19.5495614,34.3701754 24.822807,34.3701754 C30.0960526,34.3701754 34.3710526,30.0942982 34.3710526,24.8219298 C34.3710526,19.5486842 30.0960526,15.275 24.822807,15.275 L24.822807,15.275 Z M43.9192982,49.645614 L5.72719298,49.645614 C2.56447368,49.645614 0,47.0802632 0,43.9149123 L0,5.72719298 C0,2.56403509 2.56447368,0 5.72719298,0 L43.9192982,0 C47.0824561,0 49.6464912,2.56403509 49.6464912,5.72719298 L49.6464912,43.9149123 C49.6460526,47.0802632 47.0824561,49.645614 43.9192982,49.645614 L43.9192982,49.645614 Z" id="instagram"></path>
                            </g>
                        </g>
                    </g>
                </g>
            </g>
        </g>
    </g>
</svg>