<?xml version="1.0" encoding="UTF-8"?>
<svg width="63px" height="51px" viewBox="0 0 63 51" version="1.1" xmlns="http://www.w3.org/2000/svg" xmlns:xlink="http://www.w3.org/1999/xlink">
    <!-- Generator: Sketch 42 (36781) - http://www.bohemiancoding.com/sketch -->
    <title>twitter</title>
    <desc>Created with Sketch.</desc>
    <defs></defs>
    <g id="Page-1" stroke="none" stroke-width="1" fill="none" fill-rule="evenodd">
        <g id="Desktop-HD---Ratings" transform="translate(-642.000000, -3447.000000)" stroke-width="0.5" stroke="#5DA8DC" fill="#5DA8DC">
            <g id="Group-2" transform="translate(0.000000, -3.000000)">
                <g id="Footer" transform="translate(0.000000, 3087.000000)">
                    <g id="Social-&amp;-Apps" transform="translate(220.000000, 322.000000)">
                        <g id="Social" transform="translate(343.000000, 0.000000)">
                            <g id="twitter" transform="translate(80.000000, 42.000000)">
                                <path d="M40.7416356,0.0109963929 L40.7416356,0 L42.1711667,0 L43.6006977,0 L44.6453551,0.208931465 C45.3418116,0.344571971 45.9741042,0.522328661 46.5422328,0.742256519 C47.1104164,0.962184376 47.6602361,1.2187852 48.1916918,1.51200402 C48.7232024,1.80522284 49.2052293,2.10399483 49.6377724,2.40821004 C50.0666317,2.70879644 50.4515055,3.02769183 50.7923937,3.36489622 C51.1295431,3.7057844 51.6555555,3.79375554 52.3703211,3.62880965 C53.0850866,3.46386375 53.8548341,3.23475391 54.6795636,2.94153509 C55.504293,2.64831628 56.3198955,2.31842449 57.126261,1.95185973 C57.9326814,1.58529498 58.4238903,1.35255632 58.5998326,1.25358879 C58.7720911,1.15099244 58.863746,1.09601048 58.8747424,1.08864289 L58.8856838,1.07214831 L58.9406658,1.04465732 L58.9956478,1.01716634 L59.0506297,0.989675358 L59.1056117,0.962184376 L59.1166081,0.945689787 L59.1331027,0.934693394 L59.1496522,0.923697001 L59.1605937,0.907202412 L59.2155756,0.890707823 L59.2705576,0.87971143 L59.2596162,0.962184376 L59.2430666,1.04465732 L59.2155756,1.12713027 L59.1880846,1.20960322 L59.1605937,1.26458518 L59.1331027,1.31956714 L59.1056117,1.40204009 C59.0873027,1.45702206 59.0689937,1.53031301 59.0506297,1.62196795 C59.0323207,1.71362288 58.8581928,2.08013266 58.5283011,2.72160724 C58.1984093,3.36308181 57.7860445,4.0136834 57.2912069,4.67346697 C56.7963692,5.33325054 56.3528847,5.83171703 55.9606983,6.1689764 C55.5648282,6.50986458 55.3027291,6.74810143 55.1744012,6.88374194 C55.0461283,7.02301125 54.8903644,7.15128418 54.7070545,7.26861569 L54.4321447,7.45005617 L54.3771628,7.47754715 L54.3221808,7.50503814 L54.3112394,7.52153272 L54.2946898,7.53252912 L54.2781952,7.54352551 L54.2671988,7.5600201 L54.2122169,7.58751108 L54.1572349,7.61500206 L54.1462935,7.63149665 L54.1297439,7.64249305 L54.1132493,7.65348944 L54.1022529,7.66998403 L54.0913115,7.68647862 L54.0747619,7.69747501 L54.0582674,7.7084714 L54.047271,7.72496599 L54.1847259,7.72496599 L54.3221808,7.72496599 L55.8616758,7.39507421 C56.8880241,7.17514635 57.8685175,6.90941852 58.8032109,6.59783572 C59.7379043,6.28625293 60.232742,6.12130704 60.2877239,6.10299804 C60.3427059,6.08468905 60.3976878,6.06632507 60.4526698,6.04801608 L60.5351428,6.0205251 L60.5901247,5.99303412 L60.6451067,5.96554313 L60.7000887,5.93805215 L60.7550706,5.91056117 L60.8650345,5.89406658 L60.9749985,5.88307019 L60.9749985,5.93805215 L60.9749985,5.99303412 L60.9475075,6.00403051 L60.9200165,6.0205251 L60.9090751,6.03701969 L60.8925255,6.04801608 L60.8760309,6.05901247 L60.8650345,6.07550706 L60.8540931,6.09200165 L60.8375436,6.10299804 L60.821049,6.11399444 L60.8100526,6.13048903 L60.7991112,6.14698362 L60.7825616,6.15798001 L60.7550706,6.21296197 L60.7275796,6.26794394 L60.711085,6.27894033 C60.7037724,6.28993672 60.4710338,6.60146453 60.0128141,7.21363372 C59.5546494,7.82943172 59.3072305,8.14095953 59.2705576,8.14832712 C59.2339396,8.15932351 59.1825864,8.21430548 59.1166081,8.31327301 C59.0543135,8.41586936 58.665756,8.82460528 57.9509904,9.53937082 C57.2362249,10.2541364 56.5361945,10.8900578 55.8507344,11.447245 C55.1616454,12.008061 54.8133897,12.69715 54.8060771,13.5145668 C54.7950807,14.3282999 54.7529095,15.2483681 54.6795636,16.2746615 C54.6062726,17.3010098 54.4688177,18.4097761 54.2671988,19.6010703 C54.0656349,20.7923645 53.7540521,22.1394226 53.3325054,23.6422447 C52.9110137,25.1450667 52.397812,26.6112707 51.7930104,28.0408018 C51.1882088,29.4703329 50.5559162,30.7532271 49.8961327,31.8895393 C49.2363491,33.0258516 48.6315475,33.988036 48.0817278,34.7760925 C47.5319082,35.564149 46.9729615,36.3064055 46.4047779,37.002862 C45.8366493,37.6993186 45.1182549,38.4837462 44.2495399,39.3560901 C43.3771411,40.2248051 42.9006674,40.7013338 42.8200088,40.7856212 C42.7357215,40.8662797 42.3765243,41.1668661 41.7423073,41.6873254 C41.1118841,42.2114684 40.4337366,42.7356115 39.7079747,43.2598096 C38.9858965,43.7803238 38.3224292,44.2146813 37.7176276,44.5628821 C37.1128259,44.9110829 36.3834352,45.3087674 35.5293454,45.7559907 C34.6789943,46.2068428 33.7589261,46.6247058 32.7692508,47.0095795 C31.7795754,47.3944533 30.7349181,47.751836 29.6352788,48.0817278 C28.5356395,48.4116196 27.4726732,48.6682204 26.4463249,48.8514753 C25.4200315,49.0347302 24.2562283,49.1905491 22.9549701,49.318822 L21.0031104,49.5112589 L21.0031104,49.5277535 L21.0031104,49.5387499 L19.2161965,49.5387499 L17.4292827,49.5387499 L17.4292827,49.5277535 L17.4292827,49.5112589 L16.961936,49.4837679 C16.6504082,49.4654589 16.3938074,49.447095 16.1921885,49.428786 C15.9906246,49.410477 15.2300041,49.30964 13.910437,49.1263852 C12.5908698,48.9431303 11.5553945,48.7598204 10.803956,48.5765655 C10.0525725,48.3933106 8.93456921,48.0450549 7.45005617,47.5319082 C5.96554313,47.0187615 4.69545976,46.5000617 3.63980604,45.9759186 C2.58783612,45.4554043 1.92805254,45.1255126 1.66045532,44.9862432 C1.39654189,44.8506027 1.09963929,44.682028 0.769747501,44.4804092 L0.274909822,44.1780084 L0.263968411,44.1615138 L0.24741884,44.1505174 L0.23092425,44.139521 L0.219927857,44.1230264 L0.164945893,44.0955354 L0.109963929,44.0680444 L0.0990225178,44.0515498 L0.0824729465,44.0405535 L0.0659783572,44.0295571 L0.0549819644,44.0130625 L0.0440405535,43.9965679 L0.0274909822,43.9855715 L0.0109963929,43.9855715 L0,43.9855715 L0,43.9305895 L0,43.8756076 L0.0549819644,43.886604 L0.109963929,43.9030985 L0.357382768,43.9305895 C0.522328661,43.9488985 0.971366364,43.9763895 1.7044409,44.0130625 C2.43757041,44.0497354 3.21644492,44.0497354 4.04117438,44.0130625 C4.86590385,43.9763895 5.70899729,43.8939166 6.57034474,43.7656436 C7.43174718,43.6373707 8.44891352,43.4174428 9.62184376,43.1058601 C10.794829,42.7942773 11.8724755,42.4240837 12.8548382,41.9952244 C13.8335172,41.5627362 14.5299188,41.2401571 14.9441529,41.0275418 C15.3546482,40.8186103 15.9814426,40.4300528 16.8244811,39.8619242 L18.0890663,39.0097037 L18.1000627,38.9932091 L18.1165573,38.9822127 L18.1331068,38.9712163 L18.1440482,38.9547217 L18.1550446,38.9382272 L18.1715392,38.9272308 L18.1880888,38.9162344 L18.1990302,38.8997398 L18.2540122,38.8832452 L18.3089941,38.8722488 L18.3199905,38.8172668 L18.3364851,38.7622849 L18.3530347,38.7512885 L18.3639761,38.7347939 L17.9241204,38.7073029 C17.6309016,38.6889939 17.3468098,38.6706299 17.0718999,38.6523209 C16.7969901,38.634012 16.3663164,38.551539 15.7798238,38.4049021 C15.1933861,38.2582652 14.5610935,38.0383373 13.882946,37.7451185 C13.2048534,37.4518997 12.5450699,37.103644 11.9035953,36.7004612 C11.2621757,36.2972785 10.7984578,35.9618335 10.5125516,35.6942913 C10.2303292,35.4303229 9.86376441,35.0565005 9.4129123,34.5726592 C8.96574398,34.0851891 8.57718644,33.5847982 8.24729465,33.0716516 C7.91740287,32.5585049 7.60219127,31.9664591 7.30165985,31.2957341 L6.84525456,30.2950624 L6.81776358,30.2125894 L6.7902726,30.1301165 L6.77377801,30.0751345 L6.76278162,30.0201525 L6.84525456,30.0311489 L6.92772751,30.0476435 L7.53252912,30.1301165 C7.93576684,30.1850984 8.56805943,30.2034074 9.42940689,30.1850984 C10.2908093,30.1667894 10.8864289,30.1301165 11.2163207,30.0751345 C11.5462125,30.0201525 11.7478314,29.9834796 11.8211223,29.9651706 L11.9310863,29.9376796 L12.0685412,29.9101886 L12.2059961,29.8826976 L12.2169925,29.866203 L12.2334871,29.8552066 L12.2500366,29.8442103 L12.2609781,29.8277157 L12.1510141,29.8002247 L12.0410502,29.7727337 L11.9310863,29.7452427 L11.8211223,29.7177517 L11.7111584,29.6902608 C11.6378674,29.6719518 11.5095945,29.6352788 11.3262847,29.5802968 C11.1430298,29.5253149 10.6481921,29.323696 9.84177162,28.9754952 C9.03540613,28.6272944 8.39393155,28.2882207 7.91740287,27.9583289 C7.44092916,27.6284371 6.98639327,27.2674255 6.55385015,26.8751842 C6.12499083,26.479314 5.65401532,25.9697962 5.14081367,25.3466856 C4.62766699,24.723575 4.16950229,23.9996274 3.76626456,23.174898 C3.36308181,22.3501685 3.06068101,21.562112 2.85906215,20.8106735 C2.65749827,20.059235 2.52554155,19.2986695 2.46324699,18.528922 L2.36422447,17.3743007 L2.41920643,17.3852971 L2.4741884,17.4017917 L2.52917036,17.4292827 L2.58415232,17.4567737 L2.63913429,17.4842647 L2.69411625,17.5117556 L3.5463367,17.8966294 C4.11452032,18.1532302 4.82010387,18.3731581 5.66314233,18.556413 C6.50623577,18.7396679 7.01020046,18.8405048 7.17514635,18.8588138 L7.42256519,18.8863048 L7.66998403,18.8863048 L7.91740287,18.8863048 L7.90646146,18.8698102 L7.88991189,18.8588138 L7.8734173,18.8478174 L7.8624209,18.8313228 L7.85147949,18.8148282 L7.83492992,18.8038318 L7.81843533,18.7928354 L7.80743894,18.7763408 L7.75245697,18.7488498 L7.69747501,18.7213589 L7.6865336,18.7048643 L7.66998403,18.6938679 L7.65348944,18.6828715 L7.64249305,18.6663769 L7.58751108,18.6388859 L7.53252912,18.6113949 L7.52158771,18.5949003 C7.51059131,18.5875328 7.35295802,18.4702562 7.04868783,18.2430158 C6.74810143,18.0120915 6.43288983,17.7133745 6.10299804,17.3468098 C5.77310626,16.980245 5.44321447,16.5953712 5.11332269,16.1921885 C4.7834309,15.7890058 4.49021208,15.3582771 4.23361126,14.9001123 C3.97706541,14.4419476 3.7057844,13.8590838 3.41987818,13.1516859 C3.13765576,12.4479167 2.9232261,11.7386494 2.7765892,11.0238839 C2.63000728,10.3091183 2.54753434,9.60353477 2.52917036,8.90707823 C2.51086137,8.21062168 2.52917036,7.61500206 2.58415232,7.12016438 C2.63913429,6.62532671 2.74909822,6.06632507 2.91404411,5.44321447 C3.07899,4.82010387 3.31728184,4.1603203 3.62880965,3.46386375 L4.09615634,2.41920643 L4.12364733,2.33673349 L4.15113831,2.25426054 L4.16768788,2.24326415 L4.17862929,2.22676956 L4.18962568,2.21027497 L4.20612027,2.19927857 L4.22266984,2.21027497 L4.23361126,2.22676956 L4.24460765,2.24326415 L4.26110224,2.25426054 L4.27765181,2.26525693 L4.28859322,2.28175152 L4.29958961,2.29824611 L4.3160842,2.3092425 L4.34357518,2.36422447 L4.37106617,2.41920643 L4.38761574,2.43020282 L4.39855715,2.44669741 L5.14081367,3.27142688 C5.63565135,3.82124652 6.22214396,4.43523012 6.90023653,5.11332269 C7.57838408,5.79141525 7.95407584,6.14329982 8.0273668,6.1689764 C8.10071274,6.19828179 8.19231269,6.28256914 8.30227662,6.42189344 C8.41224055,6.55753394 8.7788053,6.88192753 9.40191591,7.39507421 C10.0250815,7.90822088 10.840629,8.50389548 11.8486133,9.18198805 C12.8566527,9.86008061 13.9746009,10.5290462 15.2025131,11.1888297 C16.4304803,11.8486133 17.7500475,12.4442329 19.1612146,12.9757436 C20.5724367,13.5072542 21.562112,13.855455 22.1302407,14.0204009 C22.6984243,14.1853468 23.6697357,14.3960927 25.0442848,14.6526935 C26.4188339,14.9092943 27.4543642,15.0742402 28.1507658,15.1475312 C28.8472223,15.2208221 29.323751,15.2629933 29.5802968,15.2739897 L29.9651706,15.2849861 L29.9542292,15.2025131 L29.9376796,15.1200402 L29.8277157,14.4327656 C29.7544247,13.9746009 29.7177517,13.3331264 29.7177517,12.5083969 C29.7177517,11.6836674 29.7819157,10.9231019 29.9101886,10.2266454 C30.0385165,9.53018883 30.2309534,8.82460528 30.4874992,8.10983974 C30.7441001,7.39507421 30.9952027,6.82139239 31.2407521,6.38890426 C31.4900404,5.96004494 31.8162484,5.47070545 32.2194311,4.92088581 C32.6226688,4.37106617 33.1449975,3.80293753 33.7864171,3.21644492 C34.4278917,2.6299523 35.1609662,2.10762364 35.9856957,1.64945893 C36.8104251,1.19129422 37.5710456,0.84303846 38.2674472,0.604801608 C38.9639037,0.366564756 39.5503964,0.210745869 40.0268701,0.137454911 C40.5033987,0.0641639524 40.7416356,0.0219927857 40.7416356,0.0109963929 L40.7416356,0.0109963929 Z"></path>
                            </g>
                        </g>
                    </g>
                </g>
            </g>
        </g>
    </g>
</svg>